<svg aria-hidden="false" focusable="false" class="bds-c-quantity-stepper__button--bin" width="18" height="18" viewBox="0 0 24 24" xmlns="http://www.w3.org/2000/svg" data-testid="quantity-stepper-trash-icon"><path d="M10.55 16.9C10.1358 16.9 9.8 16.5663 9.8 16.1547L9.8 9.84534C9.8 9.4337 10.1358 9.1 10.55 9.1C10.9642 9.1 11.3 9.4337 11.3 9.84534L11.3 16.1547C11.3 16.5663 10.9642 16.9 10.55 16.9Z"></path><path d="M13.45 16.9C13.0358 16.9 12.7 16.5663 12.7 16.1547L12.7 9.84534C12.7 9.4337 13.0358 9.1 13.45 9.1C13.8642 9.1 14.2 9.4337 14.2 9.84534L14.2 16.1547C14.2 16.5663 13.8642 16.9 13.45 16.9Z"></path><path fill-rule="evenodd" clip-rule="evenodd" d="M20 7.05C20 7.46421 19.6663 7.8 19.2547 7.8H18.7206C18.5225 7.8 18.3543 7.94499 18.325 8.1409L16.7584 18.6281C16.6406 19.4167 15.968 20 15.1762 20H8.82376C8.03205 20 7.35938 19.4167 7.24157 18.6281L5.675 8.1409C5.64573 7.94499 5.47748 7.8 5.27938 7.8H4.74534C4.3337 7.8 4 7.46421 4 7.05C4 6.63579 4.3337 6.3 4.74534 6.3H19.2547C19.6663 6.3 20 6.63579 20 7.05ZM16.354 7.8H7.64599C7.40874 7.80366 7.22618 8.01248 7.25533 8.2489L8.50069 18.3489C8.52541 18.5494 8.6957 18.7 8.89768 18.7H15.1023C15.3043 18.7 15.4745 18.5494 15.4993 18.3489L16.7446 8.2489C16.7738 8.01248 16.5912 7.80366 16.354 7.8Z"></path><path fill-rule="evenodd" clip-rule="evenodd" d="M8 3.75C8 3.33579 8.31603 3 8.70588 3H15.2941C15.684 3 16 3.33579 16 3.75C16 4.16421 15.684 4.5 15.2941 4.5H8.70588C8.31603 4.5 8 4.16421 8 3.75Z"></path></svg>